<?xml version="1.0" encoding="utf-8"?>
<!-- Generator: Adobe Illustrator 23.0.1, SVG Export Plug-In . SVG Version: 6.00 Build 0)  -->
<svg version="1.1" id="Layer_1" xmlns="http://www.w3.org/2000/svg" xmlns:xlink="http://www.w3.org/1999/xlink" x="0px" y="0px"
	 viewBox="0 0 283.5 283.5" style="enable-background:new 0 0 283.5 283.5;" xml:space="preserve">
<style type="text/css">
	.st0{fill:#282C34;}
	.st1{fill:#B89E4A;}
</style>
<circle class="st0" cx="141.7" cy="141.7" r="139.3"/>
<path class="st1" d="M141.7,63.1l48.3-31.6c0,0,2.3-1.7,5-0.4c2.6,1.3,2.8,4,2.8,4l5.4,57.7l55,18.1c0,0,2.6,0.8,3.3,3.6
	c0.6,2.9-1.4,4.7-1.4,4.7l-41.7,40.2l20.1,54.3c0,0,1,2.6-0.8,4.9c-1.9,2.4-4.7,1.8-4.7,1.8l-57.3-7.5L146,262.4
	c0,0-1.3,2.4-4.3,2.4c-2.9,0-4.3-2.4-4.3-2.4l-29.9-49.6l-57.3,7.5c0,0-2.8,0.5-4.6-1.8c-1.9-2.4-0.8-4.9-0.8-4.9L65,159.4
	l-41.7-40.2c0,0-2-1.9-1.4-4.7c0.6-2.8,3.3-3.6,3.3-3.6l55-18.1l5.4-57.5c0,0,0.1-2.9,2.8-4.2c2.7-1.3,4.9,0.3,4.9,0.3L141.7,63.1"
	/>
</svg>
