<?xml version="1.0" encoding="utf-8"?>
<!-- Generator: Adobe Illustrator 23.0.1, SVG Export Plug-In . SVG Version: 6.00 Build 0)  -->
<svg version="1.1" id="Layer_1" xmlns="http://www.w3.org/2000/svg" xmlns:xlink="http://www.w3.org/1999/xlink" x="0px" y="0px"
	 viewBox="0 0 428.7 332.4" style="enable-background:new 0 0 428.7 332.4;" xml:space="preserve">
<g>
	<path d="M3.1,329.2c70.8-109.3,141.1-217.9,212-327.4c70.8,109.4,141.2,218,212,327.4C285.6,329.2,145,329.2,3.1,329.2z
		 M47.3,305.3c112.4,0,223.7,0,335.8,0C327,218.7,271.3,132.7,215.2,46C158.9,132.9,103.3,218.7,47.3,305.3z"/>
	<path d="M339.1,281.4c-83.1,0-165,0-248,0c41.4-63.9,82.4-127.1,124-191.4C256.7,154.1,297.6,217.3,339.1,281.4z M135.4,257.3
		c53.7,0,106,0,159.4,0c-26.7-41.3-53-81.8-79.7-123.1C188.4,175.5,162.2,216,135.4,257.3z"/>
</g>
</svg>
